<mxfile host="app.diagrams.net" agent="Mozilla/5.0 (Windows NT 10.0; Win64; x64) AppleWebKit/537.36 (KHTML, like Gecko) Chrome/128.0.0.0 YaBrowser/24.10.0.0 Safari/537.36" version="24.8.6">
  <diagram name="Страница — 1" id="ung0pXFtCpM-ZGpEShdC">
    <mxGraphModel dx="2232" dy="1073" grid="1" gridSize="10" guides="1" tooltips="1" connect="1" arrows="1" fold="1" page="1" pageScale="1" pageWidth="827" pageHeight="1169" math="0" shadow="0">
      <root>
        <mxCell id="0" />
        <mxCell id="1" parent="0" />
        <mxCell id="8HHE65i4Vd74bU2ERSKY-3" style="edgeStyle=orthogonalEdgeStyle;rounded=0;orthogonalLoop=1;jettySize=auto;html=1;entryX=0.5;entryY=0;entryDx=0;entryDy=0;" edge="1" parent="1" source="8HHE65i4Vd74bU2ERSKY-1" target="8HHE65i4Vd74bU2ERSKY-2">
          <mxGeometry relative="1" as="geometry" />
        </mxCell>
        <mxCell id="8HHE65i4Vd74bU2ERSKY-1" value="Начало" style="ellipse;whiteSpace=wrap;html=1;" vertex="1" parent="1">
          <mxGeometry x="354" y="50" width="120" height="60" as="geometry" />
        </mxCell>
        <mxCell id="8HHE65i4Vd74bU2ERSKY-5" value="" style="edgeStyle=orthogonalEdgeStyle;rounded=0;orthogonalLoop=1;jettySize=auto;html=1;" edge="1" parent="1" source="8HHE65i4Vd74bU2ERSKY-2" target="8HHE65i4Vd74bU2ERSKY-4">
          <mxGeometry relative="1" as="geometry" />
        </mxCell>
        <mxCell id="8HHE65i4Vd74bU2ERSKY-2" value="Ввод&amp;nbsp; n, K" style="shape=parallelogram;perimeter=parallelogramPerimeter;whiteSpace=wrap;html=1;fixedSize=1;" vertex="1" parent="1">
          <mxGeometry x="354" y="150" width="120" height="60" as="geometry" />
        </mxCell>
        <mxCell id="8HHE65i4Vd74bU2ERSKY-7" value="" style="edgeStyle=orthogonalEdgeStyle;rounded=0;orthogonalLoop=1;jettySize=auto;html=1;" edge="1" parent="1" source="8HHE65i4Vd74bU2ERSKY-4" target="8HHE65i4Vd74bU2ERSKY-6">
          <mxGeometry relative="1" as="geometry" />
        </mxCell>
        <mxCell id="8HHE65i4Vd74bU2ERSKY-4" value="j = 0, M = 0" style="whiteSpace=wrap;html=1;" vertex="1" parent="1">
          <mxGeometry x="354" y="240" width="120" height="60" as="geometry" />
        </mxCell>
        <mxCell id="8HHE65i4Vd74bU2ERSKY-9" value="" style="edgeStyle=orthogonalEdgeStyle;rounded=0;orthogonalLoop=1;jettySize=auto;html=1;" edge="1" parent="1" source="8HHE65i4Vd74bU2ERSKY-6" target="8HHE65i4Vd74bU2ERSKY-8">
          <mxGeometry relative="1" as="geometry" />
        </mxCell>
        <mxCell id="8HHE65i4Vd74bU2ERSKY-6" value="i = 1, до N" style="shape=hexagon;perimeter=hexagonPerimeter2;whiteSpace=wrap;html=1;fixedSize=1;" vertex="1" parent="1">
          <mxGeometry x="354" y="330" width="120" height="80" as="geometry" />
        </mxCell>
        <mxCell id="8HHE65i4Vd74bU2ERSKY-11" value="" style="edgeStyle=orthogonalEdgeStyle;rounded=0;orthogonalLoop=1;jettySize=auto;html=1;" edge="1" parent="1" source="8HHE65i4Vd74bU2ERSKY-8" target="8HHE65i4Vd74bU2ERSKY-10">
          <mxGeometry relative="1" as="geometry" />
        </mxCell>
        <mxCell id="8HHE65i4Vd74bU2ERSKY-8" value="A[i] &amp;gt; 0" style="rhombus;whiteSpace=wrap;html=1;" vertex="1" parent="1">
          <mxGeometry x="374" y="450" width="80" height="80" as="geometry" />
        </mxCell>
        <mxCell id="8HHE65i4Vd74bU2ERSKY-13" value="" style="edgeStyle=orthogonalEdgeStyle;rounded=0;orthogonalLoop=1;jettySize=auto;html=1;" edge="1" parent="1" source="8HHE65i4Vd74bU2ERSKY-10" target="8HHE65i4Vd74bU2ERSKY-12">
          <mxGeometry relative="1" as="geometry" />
        </mxCell>
        <mxCell id="8HHE65i4Vd74bU2ERSKY-10" value="j = j + 1" style="whiteSpace=wrap;html=1;" vertex="1" parent="1">
          <mxGeometry x="354" y="555" width="120" height="60" as="geometry" />
        </mxCell>
        <mxCell id="8HHE65i4Vd74bU2ERSKY-14" style="edgeStyle=orthogonalEdgeStyle;rounded=0;orthogonalLoop=1;jettySize=auto;html=1;entryX=0;entryY=0.5;entryDx=0;entryDy=0;" edge="1" parent="1" source="8HHE65i4Vd74bU2ERSKY-12" target="8HHE65i4Vd74bU2ERSKY-6">
          <mxGeometry relative="1" as="geometry">
            <mxPoint x="350" y="370" as="targetPoint" />
            <Array as="points">
              <mxPoint x="310" y="690" />
              <mxPoint x="310" y="370" />
            </Array>
          </mxGeometry>
        </mxCell>
        <mxCell id="8HHE65i4Vd74bU2ERSKY-24" style="edgeStyle=orthogonalEdgeStyle;rounded=0;orthogonalLoop=1;jettySize=auto;html=1;" edge="1" parent="1" source="8HHE65i4Vd74bU2ERSKY-12" target="8HHE65i4Vd74bU2ERSKY-25">
          <mxGeometry relative="1" as="geometry">
            <mxPoint x="414" y="830" as="targetPoint" />
          </mxGeometry>
        </mxCell>
        <mxCell id="8HHE65i4Vd74bU2ERSKY-12" value="j == k" style="rhombus;whiteSpace=wrap;html=1;" vertex="1" parent="1">
          <mxGeometry x="374" y="650" width="80" height="80" as="geometry" />
        </mxCell>
        <mxCell id="8HHE65i4Vd74bU2ERSKY-16" value="Нет" style="text;html=1;align=center;verticalAlign=middle;whiteSpace=wrap;rounded=0;" vertex="1" parent="1">
          <mxGeometry x="314" y="660" width="60" height="30" as="geometry" />
        </mxCell>
        <mxCell id="8HHE65i4Vd74bU2ERSKY-17" value="" style="endArrow=none;html=1;rounded=0;entryX=0;entryY=0.5;entryDx=0;entryDy=0;" edge="1" parent="1" target="8HHE65i4Vd74bU2ERSKY-8">
          <mxGeometry width="50" height="50" relative="1" as="geometry">
            <mxPoint x="310" y="490" as="sourcePoint" />
            <mxPoint x="370" y="490" as="targetPoint" />
          </mxGeometry>
        </mxCell>
        <mxCell id="8HHE65i4Vd74bU2ERSKY-18" value="Нет" style="text;html=1;align=center;verticalAlign=middle;whiteSpace=wrap;rounded=0;" vertex="1" parent="1">
          <mxGeometry x="314" y="470" width="60" height="30" as="geometry" />
        </mxCell>
        <mxCell id="8HHE65i4Vd74bU2ERSKY-19" value="Да" style="text;html=1;align=center;verticalAlign=middle;whiteSpace=wrap;rounded=0;" vertex="1" parent="1">
          <mxGeometry x="370" y="520" width="60" height="30" as="geometry" />
        </mxCell>
        <mxCell id="8HHE65i4Vd74bU2ERSKY-20" value="Конец" style="ellipse;whiteSpace=wrap;html=1;" vertex="1" parent="1">
          <mxGeometry x="354" y="980" width="120" height="80" as="geometry" />
        </mxCell>
        <mxCell id="8HHE65i4Vd74bU2ERSKY-27" value="" style="edgeStyle=orthogonalEdgeStyle;rounded=0;orthogonalLoop=1;jettySize=auto;html=1;" edge="1" parent="1" source="8HHE65i4Vd74bU2ERSKY-23" target="8HHE65i4Vd74bU2ERSKY-20">
          <mxGeometry relative="1" as="geometry" />
        </mxCell>
        <mxCell id="8HHE65i4Vd74bU2ERSKY-23" value="Вывод M" style="shape=parallelogram;perimeter=parallelogramPerimeter;whiteSpace=wrap;html=1;fixedSize=1;" vertex="1" parent="1">
          <mxGeometry x="354" y="870" width="120" height="60" as="geometry" />
        </mxCell>
        <mxCell id="8HHE65i4Vd74bU2ERSKY-26" value="" style="edgeStyle=orthogonalEdgeStyle;rounded=0;orthogonalLoop=1;jettySize=auto;html=1;" edge="1" parent="1" source="8HHE65i4Vd74bU2ERSKY-25" target="8HHE65i4Vd74bU2ERSKY-23">
          <mxGeometry relative="1" as="geometry" />
        </mxCell>
        <mxCell id="8HHE65i4Vd74bU2ERSKY-25" value="M = i" style="rounded=0;whiteSpace=wrap;html=1;" vertex="1" parent="1">
          <mxGeometry x="354" y="750" width="120" height="60" as="geometry" />
        </mxCell>
        <mxCell id="8HHE65i4Vd74bU2ERSKY-31" value="" style="endArrow=none;html=1;rounded=0;exitX=1;exitY=0.5;exitDx=0;exitDy=0;" edge="1" parent="1" source="8HHE65i4Vd74bU2ERSKY-6">
          <mxGeometry width="50" height="50" relative="1" as="geometry">
            <mxPoint x="540" y="610" as="sourcePoint" />
            <mxPoint x="414" y="840" as="targetPoint" />
            <Array as="points">
              <mxPoint x="510" y="370" />
              <mxPoint x="510" y="600" />
              <mxPoint x="510" y="840" />
            </Array>
          </mxGeometry>
        </mxCell>
      </root>
    </mxGraphModel>
  </diagram>
</mxfile>
